<svg xmlns="http://www.w3.org/2000/svg" version="1.1" xmlns:xlink="http://www.w3.org/1999/xlink" xmlns:svgjs="http://svgjs.com/svgjs" width="1440" height="560" preserveAspectRatio="none" viewBox="0 0 1440 560"><g mask="url(&quot;#SvgjsMask1071&quot;)" fill="none"><rect width="1440" height="560" x="0" y="0" fill="#0e2a47"></rect><path d="M39 160L757 159" stroke-width="6" stroke="url(#SvgjsLinearGradient1072)" stroke-linecap="round" class="Right"></path><path d="M861 26L1650 25" stroke-width="6" stroke="url(#SvgjsLinearGradient1073)" stroke-linecap="round" class="Left"></path><path d="M1182 523L450 522" stroke-width="6" stroke="url(#SvgjsLinearGradient1073)" stroke-linecap="round" class="Left"></path><path d="M724 511L-127 510" stroke-width="6" stroke="url(#SvgjsLinearGradient1073)" stroke-linecap="round" class="Left"></path><path d="M499 289L904 288" stroke-width="8" stroke="url(#SvgjsLinearGradient1073)" stroke-linecap="round" class="Left"></path><path d="M143 388L991 387" stroke-width="8" stroke="url(#SvgjsLinearGradient1073)" stroke-linecap="round" class="Left"></path><path d="M184 514L1202 513" stroke-width="8" stroke="url(#SvgjsLinearGradient1073)" stroke-linecap="round" class="Left"></path><path d="M345 322L-26 321" stroke-width="6" stroke="url(#SvgjsLinearGradient1072)" stroke-linecap="round" class="Right"></path><path d="M180 115L640 114" stroke-width="10" stroke="url(#SvgjsLinearGradient1072)" stroke-linecap="round" class="Right"></path><path d="M668 221L-120 220" stroke-width="10" stroke="url(#SvgjsLinearGradient1073)" stroke-linecap="round" class="Left"></path><path d="M1227 151L253 150" stroke-width="8" stroke="url(#SvgjsLinearGradient1072)" stroke-linecap="round" class="Right"></path><path d="M1244 413L2009 412" stroke-width="6" stroke="url(#SvgjsLinearGradient1073)" stroke-linecap="round" class="Left"></path><path d="M807 13L1253 12" stroke-width="6" stroke="url(#SvgjsLinearGradient1073)" stroke-linecap="round" class="Left"></path><path d="M1059 11L1541 10" stroke-width="10" stroke="url(#SvgjsLinearGradient1072)" stroke-linecap="round" class="Right"></path></g><defs><mask id="SvgjsMask1071"><rect width="1440" height="560" fill="#ffffff"></rect></mask><linearGradient x1="0%" y1="0%" x2="100%" y2="0%" id="SvgjsLinearGradient1072"><stop stop-color="rgba(28, 83, 142, 0)" offset="0"></stop><stop stop-color="#1c538e" offset="1"></stop></linearGradient><linearGradient x1="100%" y1="0%" x2="0%" y2="0%" id="SvgjsLinearGradient1073"><stop stop-color="rgba(28, 83, 142, 0)" offset="0"></stop><stop stop-color="#1c538e" offset="1"></stop></linearGradient></defs></svg>